<?xml version="1.0" standalone="yes"?>

<svg version="1.1" viewBox="0.0 0.0 489.0 378.0" fill="none" stroke="none" stroke-linecap="square" stroke-miterlimit="10" xmlns="http://www.w3.org/2000/svg" xmlns:xlink="http://www.w3.org/1999/xlink"><clipPath id="p.0"><path d="m0 0l489.0 0l0 378.0l-489.0 0l0 -378.0z" clip-rule="nonzero"></path></clipPath><g clip-path="url(#p.0)"><path fill="#000000" fill-opacity="0.0" d="m0 0l489.20734 0l0 378.76117l-489.20734 0z" fill-rule="nonzero"></path><path fill="#cfe2f3" d="m12.519685 301.7349l0 0c0 -36.39859 34.957043 -65.9055 78.07874 -65.9055l0 0c43.121696 0 78.07874 29.506912 78.07874 65.9055l0 0c0 36.39862 -34.957047 65.90552 -78.07874 65.90552l0 0c-43.1217 0 -78.07874 -29.506897 -78.07874 -65.90552z" fill-rule="nonzero"></path><path stroke="#000000" stroke-width="2.0" stroke-linejoin="round" stroke-linecap="butt" d="m12.519685 301.7349l0 0c0 -36.39859 34.957043 -65.9055 78.07874 -65.9055l0 0c43.121696 0 78.07874 29.506912 78.07874 65.9055l0 0c0 36.39862 -34.957047 65.90552 -78.07874 65.90552l0 0c-43.1217 0 -78.07874 -29.506897 -78.07874 -65.90552z" fill-rule="nonzero"></path><path fill="#000000" fill-opacity="0.0" d="m68.18898 269.8609l44.818893 0l0 63.748016l-44.818893 0z" fill-rule="nonzero"></path><path fill="#000000" d="m77.12648 317.2609l11.0 -28.640625l4.078125 0l11.71875 28.640625l-4.3125 0l-3.34375 -8.671875l-11.96875 0l-3.140625 8.671875l-4.03125 0zm8.265625 -11.765625l9.703125 0l-2.984375 -7.921875q-1.359375 -3.609375 -2.03125 -5.9375q-0.546875 2.75 -1.546875 5.46875l-3.140625 8.390625z" fill-rule="nonzero"></path><path fill="#cfe2f3" d="m324.83466 301.7349l0 0c0 -36.39859 34.95703 -65.9055 78.078735 -65.9055l0 0c43.121704 0 78.078735 29.506912 78.078735 65.9055l0 0c0 36.39862 -34.95703 65.90552 -78.078735 65.90552l0 0c-43.121704 0 -78.078735 -29.506897 -78.078735 -65.90552z" fill-rule="nonzero"></path><path stroke="#000000" stroke-width="2.0" stroke-linejoin="round" stroke-linecap="butt" d="m324.83466 301.7349l0 0c0 -36.39859 34.95703 -65.9055 78.078735 -65.9055l0 0c43.121704 0 78.078735 29.506912 78.078735 65.9055l0 0c0 36.39862 -34.95703 65.90552 -78.078735 65.90552l0 0c-43.121704 0 -78.078735 -29.506897 -78.078735 -65.90552z" fill-rule="nonzero"></path><path fill="#000000" fill-opacity="0.0" d="m380.50394 269.8609l44.81891 0l0 63.748016l-44.81891 0z" fill-rule="nonzero"></path><path fill="#000000" d="m392.44144 317.2609l0 -28.640625l10.734375 0q3.28125 0 5.265625 0.875q1.984375 0.875 3.109375 2.6875q1.125 1.796875 1.125 3.765625q0 1.84375 -1.0 3.46875q-1.0 1.609375 -3.015625 2.609375q2.609375 0.765625 4.0 2.609375q1.390625 1.828125 1.390625 4.328125q0 2.0 -0.84375 3.734375q-0.84375 1.734375 -2.09375 2.671875q-1.25 0.9375 -3.140625 1.421875q-1.890625 0.46875 -4.625 0.46875l-10.90625 0zm3.78125 -16.609375l6.1875 0q2.53125 0 3.625 -0.328125q1.4375 -0.421875 2.171875 -1.421875q0.734375 -1.0 0.734375 -2.5q0 -1.421875 -0.6875 -2.5q-0.6875 -1.09375 -1.953125 -1.484375q-1.265625 -0.40625 -4.359375 -0.40625l-5.71875 0l0 8.640625zm0 13.234375l7.125 0q1.84375 0 2.578125 -0.140625q1.3125 -0.234375 2.1875 -0.78125q0.890625 -0.546875 1.453125 -1.59375q0.5625 -1.046875 0.5625 -2.40625q0 -1.609375 -0.828125 -2.78125q-0.8125 -1.1875 -2.265625 -1.65625q-1.453125 -0.484375 -4.1875 -0.484375l-6.625 0l0 9.84375z" fill-rule="nonzero"></path><path fill="#cfe2f3" d="m168.67717 77.54593l0 0c0 -36.398605 34.95703 -65.90551 78.078735 -65.90551l0 0c43.12169 0 78.07875 29.506905 78.07875 65.90551l0 0c0 36.398613 -34.95706 65.90552 -78.07875 65.90552l0 0c-43.121704 0 -78.078735 -29.506905 -78.078735 -65.90552z" fill-rule="nonzero"></path><path stroke="#000000" stroke-width="2.0" stroke-linejoin="round" stroke-linecap="butt" d="m168.67717 77.54593l0 0c0 -36.398605 34.95703 -65.90551 78.078735 -65.90551l0 0c43.12169 0 78.07875 29.506905 78.07875 65.90551l0 0c0 36.398613 -34.95706 65.90552 -78.07875 65.90552l0 0c-43.121704 0 -78.078735 -29.506905 -78.078735 -65.90552z" fill-rule="nonzero"></path><path fill="#000000" fill-opacity="0.0" d="m203.41733 35.057743l86.677155 0l0 57.417324l-86.677155 0z" fill-rule="nonzero"></path><path fill="#000000" d="m216.5892 90.13774l0 -21.609375l-3.71875 0l0 -3.28125l3.71875 0l0 -2.65625q0 -2.5 0.453125 -3.71875q0.609375 -1.640625 2.140625 -2.65625q1.53125 -1.03125 4.296875 -1.03125q1.78125 0 3.9375 0.421875l-0.625 3.6875q-1.3125 -0.234375 -2.484375 -0.234375q-1.921875 0 -2.71875 0.828125q-0.796875 0.8125 -0.796875 3.0625l0 2.296875l4.84375 0l0 3.28125l-4.84375 0l0 21.609375l-4.203125 0zm10.7578125 -12.453125q0 -6.90625 3.84375 -10.234375q3.21875 -2.765625 7.828125 -2.765625q5.140625 0 8.390625 3.359375q3.265625 3.359375 3.265625 9.296875q0 4.796875 -1.453125 7.5625q-1.4375 2.75 -4.1875 4.28125q-2.75 1.515625 -6.015625 1.515625q-5.21875 0 -8.453125 -3.34375q-3.21875 -3.359375 -3.21875 -9.671875zm4.34375 0q0 4.78125 2.078125 7.171875q2.09375 2.375 5.25 2.375q3.140625 0 5.21875 -2.390625q2.09375 -2.390625 2.09375 -7.296875q0 -4.609375 -2.09375 -6.984375q-2.09375 -2.390625 -5.21875 -2.390625q-3.15625 0 -5.25 2.375q-2.078125 2.359375 -2.078125 7.140625zm22.351562 0q0 -6.90625 3.84375 -10.234375q3.21875 -2.765625 7.828125 -2.765625q5.140625 0 8.390625 3.359375q3.265625 3.359375 3.265625 9.296875q0 4.796875 -1.453125 7.5625q-1.4375 2.75 -4.1875 4.28125q-2.75 1.515625 -6.015625 1.515625q-5.21875 0 -8.453125 -3.34375q-3.21875 -3.359375 -3.21875 -9.671875zm4.34375 0q0 4.78125 2.078125 7.171875q2.09375 2.375 5.25 2.375q3.140625 0 5.21875 -2.390625q2.09375 -2.390625 2.09375 -7.296875q0 -4.609375 -2.09375 -6.984375q-2.09375 -2.390625 -5.21875 -2.390625q-3.15625 0 -5.25 2.375q-2.078125 2.359375 -2.078125 7.140625z" fill-rule="nonzero"></path><path fill="#000000" fill-opacity="0.0" d="m246.7559 143.45145l-156.15747 92.377945" fill-rule="nonzero"></path><path stroke="#000000" stroke-width="4.0" stroke-linejoin="round" stroke-linecap="butt" d="m246.7559 143.45145l-144.35901 85.39833" fill-rule="evenodd"></path><path fill="#000000" stroke="#000000" stroke-width="4.0" stroke-linecap="butt" d="m102.39689 228.8498l1.5812912 -6.161957l-8.346848 10.164246l12.9275055 -2.4210052z" fill-rule="evenodd"></path><path fill="#000000" fill-opacity="0.0" d="m246.7559 143.45145l156.15749 92.377945" fill-rule="nonzero"></path><path stroke="#000000" stroke-width="4.0" stroke-linejoin="round" stroke-linecap="butt" d="m246.7559 143.45145l144.359 85.39833" fill-rule="evenodd"></path><path fill="#000000" stroke="#000000" stroke-width="4.0" stroke-linecap="butt" d="m391.11493 228.8498l-6.161957 1.5812836l12.927521 2.4210052l-8.346863 -10.164246z" fill-rule="evenodd"></path><path fill="#000000" fill-opacity="0.0" d="m324.83466 301.7349l-156.15749 0" fill-rule="nonzero"></path><path stroke="#000000" stroke-width="4.0" stroke-linejoin="round" stroke-linecap="butt" d="m324.83466 301.7349l-142.44914 0" fill-rule="evenodd"></path><path fill="#000000" stroke="#000000" stroke-width="4.0" stroke-linecap="butt" d="m182.38551 301.7349l4.498337 -4.4983215l-12.35907 4.4983215l12.35907 4.498352z" fill-rule="evenodd"></path></g></svg>

